<svg xmlns="http://www.w3.org/2000/svg" width="207.409" height="42.152" viewBox="0 0 207.409 42.152">
  <g id="MHLC_Logo" data-name="MHLC Logo" transform="translate(-3.882 -4.413)">
    <path id="Path_1" data-name="Path 1" d="M60.378,58.467l-.025-13.01,4.218.005-5.364-4.134-.729.278-.025-5.627-2.219-.025.013,3.12L49.364,33.98,35.8,45.447l3.436.008.127,12.914A11.784,11.784,0,0,1,41.6,57.86a21.751,21.751,0,0,1,7.423.466c5.655,1.288,5.685,2.318,11.35.142Zm-9.7-7.5h3.1v3.1h-3.1v-3.1Zm-4.086,0h3.1v3.1h-3.1v-3.1Zm4.086-3.818h3.1v3.1h-3.1v-3.1Zm-4.086,0h3.1v3.1h-3.1v-3.1Z" transform="translate(-23.842 -22.086)" fill="#18b24b" fill-rule="evenodd"/>
    <path id="Path_2" data-name="Path 2" d="M207.7,73.994h1.966V63.58H207.42l-3.264,4.476-3.261-4.476H198.63V73.994H200.6V66.421l3.322,4.537h.387l3.4-4.521Z" transform="translate(-145.474 -44.197)" fill="#18b24b"/>
    <path id="Path_3" data-name="Path 3" d="M249.54,63.46H247.2v.089l4.008,6.042V73.9h1.968V69.591l4.155-6.042V63.46h-2.368l-2.771,4.314Z" transform="translate(-181.755 -44.107)" fill="#18b24b"/>
    <path id="Path_4" data-name="Path 4" d="M311.653,73.994V63.58H309.7v4.395h-5.124V63.58H302.61V73.994h1.968v-4.2H309.7v4.2Z" transform="translate(-223.145 -44.197)" fill="#18b24b"/>
    <path id="Path_5" data-name="Path 5" d="M349.194,62.7a5.209,5.209,0,0,0-5.364,5.5,5.356,5.356,0,1,0,10.713-.015,5.183,5.183,0,0,0-5.349-5.483Zm0,1.786a3.372,3.372,0,0,1,3.411,3.724,3.421,3.421,0,1,1-6.836.013,3.387,3.387,0,0,1,3.426-3.737Z" transform="translate(-253.936 -43.54)" fill="#18b24b"/>
    <path id="Path_6" data-name="Path 6" d="M401.013,73.994h1.966V63.58H400.73l-3.261,4.476L394.2,63.58H391.94V73.994h1.966V66.421l3.322,4.537h.387l3.4-4.521Z" transform="translate(-289.873 -44.197)" fill="#18b24b"/>
    <path id="Path_7" data-name="Path 7" d="M450.558,71.966H444.7V69.613h5.647V67.782H444.7V65.368h5.855V63.46H442.75V73.9h7.808V71.966Z" transform="translate(-327.827 -44.107)" fill="#18b24b"/>
    <path id="Path_8" data-name="Path 8" d="M491.51,63.46V73.9h7.33V72.085h-5.361V63.46Z" transform="translate(-364.251 -44.107)" fill="#18b24b"/>
    <path id="Path_9" data-name="Path 9" d="M528.264,62.7a5.209,5.209,0,0,0-5.364,5.5,5.355,5.355,0,1,0,10.71-.015,5.183,5.183,0,0,0-5.346-5.483Zm0,1.786a3.374,3.374,0,0,1,3.411,3.724,3.422,3.422,0,1,1-6.839.013,3.389,3.389,0,0,1,3.428-3.737Z" transform="translate(-387.698 -43.54)" fill="#18b24b"/>
    <path id="Path_10" data-name="Path 10" d="M576.066,73.9h2.146L573.534,63.46h-2.146L566.71,73.9h2.13l.893-1.968h5.452l.88,1.968Zm-1.67-3.8h-3.874l1.938-4.451L574.4,70.1Z" transform="translate(-420.424 -44.107)" fill="#18b24b"/>
    <path id="Path_11" data-name="Path 11" d="M622.987,69.937l-5.111-6.477h-1.6V73.9h1.969V66.861l5.483,7.044h1.222V63.46h-1.966Z" transform="translate(-457.452 -44.107)" fill="#18b24b"/>
    <path id="Path_12" data-name="Path 12" d="M676.549,70.67a3.837,3.837,0,0,1-2.621,1.058,3.342,3.342,0,0,1-3.59-3.53,3.419,3.419,0,0,1,3.59-3.621,3.584,3.584,0,0,1,2.517.984l1.311-1.268a5.381,5.381,0,0,0-3.828-1.594,5.25,5.25,0,0,0-5.528,5.5,5.126,5.126,0,0,0,5.528,5.379,5.494,5.494,0,0,0,3.962-1.548l-1.341-1.359Z" transform="translate(-496.384 -43.54)" fill="#18b24b"/>
    <path id="Path_13" data-name="Path 13" d="M713.564,73.9h2.146L711.031,63.46h-2.143L704.21,73.9h2.13l.893-1.968h5.452l.878,1.968Zm-1.67-3.8H708.02l1.938-4.451,1.936,4.451Z" transform="translate(-523.134 -44.107)" fill="#18b24b"/>
    <path id="Path_14" data-name="Path 14" d="M762.427,73.778l-3.157-3.56a3.1,3.1,0,0,0,2.636-3.284,3.458,3.458,0,0,0-3.755-3.464c-1.652.015-3.307,0-4.962,0V73.914h1.966V70.425h1.892l3.039,3.487h2.34v-.134ZM758.152,65.3a1.679,1.679,0,1,1,0,3.35h-2.993V65.3Z" transform="translate(-559.721 -44.115)" fill="#18b24b"/>
    <path id="Path_15" data-name="Path 15" d="M800.566,71.966h-5.855V69.613h5.647V67.782h-5.647V65.368h5.855V63.46H792.76V73.9h7.806V71.966Z" transform="translate(-589.28 -44.107)" fill="#18b24b"/>
    <path id="Path_16" data-name="Path 16" d="M305.48,127.182v-2.457h3.332v-1.159H305.48v-1.812H309v-1.2H304.23v6.632Z" transform="translate(-224.355 -86.753)" fill="#243e90"/>
    <path id="Path_17" data-name="Path 17" d="M330.666,119.99a3.316,3.316,0,0,0-3.416,3.5,3.411,3.411,0,1,0,6.821-.01,3.3,3.3,0,0,0-3.406-3.489Zm0,1.139a2.147,2.147,0,0,1,2.171,2.373,2.178,2.178,0,1,1-4.352.01,2.159,2.159,0,0,1,2.181-2.383Z" transform="translate(-241.551 -86.334)" fill="#243e90"/>
    <path id="Path_18" data-name="Path 18" d="M364.91,127.043l-2.012-2.267a1.971,1.971,0,0,0,1.68-2.09,2.2,2.2,0,0,0-2.391-2.206c-1.053.01-2.105,0-3.158,0v6.649h1.252v-2.221h1.2l1.936,2.221h1.488v-.086Zm-2.722-5.4a1.07,1.07,0,1,1,0,2.135H360.28v-2.135Z" transform="translate(-265.29 -86.7)" fill="#243e90"/>
    <path id="Path_19" data-name="Path 19" d="M397.4,127.129h1.366l-2.978-6.649h-1.366l-2.978,6.649H392.8l.569-1.252h3.471l.559,1.252Zm-1.063-2.421h-2.467l1.232-2.834,1.235,2.834Z" transform="translate(-289.5 -86.7)" fill="#243e90"/>
    <path id="Path_20" data-name="Path 20" d="M433.142,124.248h1.915c.511,0,1.242.314,1.242.911,0,.625-.731.8-1.242.8h-1.915v-1.708Zm0-2.639h1.915c.8,0,1.042.516,1.042.82,0,.382-.256.716-1.042.716h-1.915v-1.536Zm1.918-1.139h-3.15v6.649h3.15c1.376,0,2.485-.476,2.485-1.953a1.622,1.622,0,0,0-1.063-1.48,1.356,1.356,0,0,0,.863-1.285c0-1.341-.977-1.931-2.285-1.931Z" transform="translate(-319.73 -86.693)" fill="#243e90"/>
    <path id="Path_21" data-name="Path 21" d="M463.7,125.887h-3.727v-1.5h3.6v-1.166h-3.6v-1.538H463.7V120.47H458.73v6.649H463.7v-1.232Z" transform="translate(-339.764 -86.693)" fill="#243e90"/>
    <path id="Path_22" data-name="Path 22" d="M485.435,127.129h1.252v-5.511h2.105V120.48H483.33v1.139h2.105v5.511Z" transform="translate(-358.14 -86.7)" fill="#243e90"/>
    <path id="Path_23" data-name="Path 23" d="M509.635,127.129h1.252v-5.511h2.105V120.48H507.53v1.139h2.105v5.511Z" transform="translate(-376.217 -86.7)" fill="#243e90"/>
    <path id="Path_24" data-name="Path 24" d="M538.142,125.887h-3.729v-1.5h3.6v-1.166h-3.6v-1.538h3.729V120.47H533.17v6.649h4.972v-1.232Z" transform="translate(-395.37 -86.693)" fill="#243e90"/>
    <path id="Path_25" data-name="Path 25" d="M563.7,127.043l-2.011-2.267a1.971,1.971,0,0,0,1.68-2.09,2.2,2.2,0,0,0-2.391-2.206c-1.052.01-2.1,0-3.158,0v6.649h1.252v-2.221h1.2l1.936,2.221h1.49v-.086Zm-2.722-5.4a1.07,1.07,0,1,1,0,2.135H559.07v-2.135Z" transform="translate(-413.783 -86.7)" fill="#243e90"/>
    <path id="Path_26" data-name="Path 26" d="M592.93,120.47v6.652H597.6v-1.159h-3.416V120.47Z" transform="translate(-440.01 -86.693)" fill="#243e90"/>
    <path id="Path_27" data-name="Path 27" d="M617.275,127.122V120.47H616.03v6.652Z" transform="translate(-457.265 -86.693)" fill="#243e90"/>
    <path id="Path_28" data-name="Path 28" d="M631.751,120.47h-1.4l-2.011,5.177-2-5.177h-1.4l2.76,6.68h1.3Z" transform="translate(-463.913 -86.693)" fill="#243e90"/>
    <path id="Path_29" data-name="Path 29" d="M657.342,127.122V120.47H656.1v6.652Z" transform="translate(-487.197 -86.693)" fill="#243e90"/>
    <path id="Path_30" data-name="Path 30" d="M671.438,124.594l-3.254-4.124H667.17v6.652h1.252v-4.486l3.489,4.486h.779V120.47h-1.252Z" transform="translate(-495.466 -86.693)" fill="#243e90"/>
    <path id="Path_31" data-name="Path 31" d="M699.586,120.775a3.508,3.508,0,0,0-2.467-1.015,3.377,3.377,0,0,0-3.509,3.6,3.2,3.2,0,0,0,3.509,3.385,3.31,3.31,0,0,0,2.646-1.194v-2.8h-2.846v1.121h1.7v1.177a2.2,2.2,0,0,1-1.5.531,2.1,2.1,0,0,1-2.287-2.219,2.265,2.265,0,0,1,2.287-2.447,2.547,2.547,0,0,1,1.688.663l.779-.8Z" transform="translate(-515.216 -86.162)" fill="#243e90"/>
    <path id="Path_32" data-name="Path 32" d="M730.01,131.34H753.7v1.121H730.01Z" transform="translate(-542.406 -94.813)" fill="#243e90" fill-rule="evenodd"/>
    <path id="Path_33" data-name="Path 33" d="M198.63,131.34h23.685v1.121H198.63Z" transform="translate(-145.474 -94.813)" fill="#243e90" fill-rule="evenodd"/>
    <path id="Path_34" data-name="Path 34" d="M4.076,22.7a21.129,21.129,0,0,0,4.65,16.254c7.942,9.673,22.647,9.589,29.947,2.771,1.349-1.26,4.086-3.813,4.881-6.239-5.156-.053-5.463,5.943-13.005,6.793a10.3,10.3,0,0,1-3.188-.2,4.77,4.77,0,0,1-2.371-.941c1.3-.9,3.4.9,7.423-.349,1.915-.6,4.175-2.2,4.534-3.583-6,2.315-6.024,1.28-11.965-.071a20.911,20.911,0,0,0-7.107-.45,10.444,10.444,0,0,0-2.96.817,6.278,6.278,0,0,0-2.4,1.629l.471-1.311A34.032,34.032,0,0,1,9.736,33.3,19.641,19.641,0,0,1,7.7,27.356,19.273,19.273,0,0,1,24.576,5.047c3.2-.352,4.989.2,7.241.476C18.85,1.4,5.954,9.141,4.076,22.7Z" transform="translate(0)" fill="#243e90" fill-rule="evenodd"/>
    <path id="Path_35" data-name="Path 35" d="M24.021,36.606a16.169,16.169,0,0,1-.979-9.184,17.073,17.073,0,0,1,19.08-14.027A17.432,17.432,0,0,1,50.449,16.8c7.431,5.893,8.517,15.733,3.56,23.556C62.54,29.514,56.612,13.185,43.03,11A18.1,18.1,0,0,0,22.382,26.7c-.417,3.669.167,7.456,1.64,9.906Z" transform="translate(-13.721 -4.752)" fill="#18b24b" fill-rule="evenodd"/>
    <path id="Path_36" data-name="Path 36" d="M150.816,37.712a16.716,16.716,0,0,1,.549,3.785c.023.5.023,1,.005,1.505a19.24,19.24,0,0,1-4.354,10.773,18.527,18.527,0,0,0,1.126-25.036l-1.381,1.166A18.531,18.531,0,0,1,148.938,33a18.968,18.968,0,0,1,1.877,4.714Z" transform="translate(-106.728 -18.172)" fill="#243e90" fill-rule="evenodd"/>
    <path id="Path_37" data-name="Path 37" d="M153.372,61.392a17.968,17.968,0,0,1-5.592,16.327,18.47,18.47,0,0,0,7.014-16.929l-1.422.6Z" transform="translate(-107.49 -42.113)" fill="#18b24b" fill-rule="evenodd"/>
  </g>
</svg>
